<svg width="311" height="140" viewBox="0 0 311 140" fill="none" xmlns="http://www.w3.org/2000/svg">
<g clip-path="url(#clip0_657_6917)">
<mask id="mask0_657_6917" style="mask-type:luminance" maskUnits="userSpaceOnUse" x="-132" y="0" width="520" height="158">
<path d="M387.693 0H-131.771V157.324H387.693V0Z" fill="white"/>
</mask>
<g mask="url(#mask0_657_6917)">
<path d="M105.473 124.882L101.801 124.717C101.801 124.717 95.9759 125.414 93.9458 128.481C91.9158 131.548 97.1021 138.35 97.1021 138.35C95.1438 141.303 96.5426 141.489 96.9012 141.626C97.8912 141.885 101.463 142 105.466 142.05V124.882H105.473Z" fill="#F69F43"/>
<path d="M105.603 124.753L101.808 124.588H101.794H101.78C101.765 124.588 100.295 124.767 98.5877 125.321C97.0095 125.838 94.9006 126.786 93.8317 128.409C92.9638 129.724 93.2363 131.814 94.6423 134.63C95.5533 136.454 96.6795 137.999 96.9378 138.358C96.1128 139.622 95.8044 140.513 96.0053 141.087C96.1559 141.518 96.5504 141.655 96.7656 141.727C96.8015 141.734 96.8302 141.748 96.8517 141.756H96.8661C97.734 141.985 100.546 142.122 105.467 142.186H105.603V124.753ZM96.8517 141.468C96.658 141.404 96.3639 141.31 96.2563 140.994C96.1415 140.649 96.2061 139.931 97.2104 138.423L97.2606 138.344L97.2032 138.265C97.153 138.2 92.0958 131.505 94.0469 128.553C95.9837 125.629 101.514 124.882 101.794 124.846L105.323 125.005V141.906C100.589 141.842 97.7627 141.705 96.9306 141.49C96.9019 141.483 96.8732 141.468 96.8374 141.461L96.8517 141.468Z" fill="#D87E38"/>
<path d="M118.098 138.344C119.411 136.621 122.409 131.88 121.57 129.107C120.724 126.334 116.183 125.365 116.183 125.365L111.025 125.135V142.094C111.786 142.094 112.525 142.094 113.228 142.094C119.239 142.094 118.622 141.354 118.816 140.614C119.009 139.874 118.027 138.696 118.098 138.344Z" fill="#F69F43"/>
<path d="M118.013 141.841C118.795 141.59 118.852 141.202 118.903 140.864C118.917 140.785 118.924 140.713 118.946 140.642C119.075 140.146 118.752 139.514 118.494 139.004C118.379 138.781 118.235 138.501 118.228 138.386C119.799 136.317 122.511 131.742 121.693 129.055C120.839 126.239 116.392 125.263 116.205 125.219L110.883 124.982V142.215H111.019C111.779 142.215 112.518 142.215 113.221 142.215C115.682 142.215 117.21 142.093 118.013 141.834V141.841ZM111.155 125.27L116.162 125.492C116.406 125.55 120.653 126.541 121.442 129.141C122.231 131.735 119.534 136.246 117.992 138.264L117.97 138.286V138.314C117.927 138.501 118.063 138.767 118.25 139.133C118.487 139.6 118.788 140.182 118.68 140.577C118.659 140.663 118.644 140.749 118.63 140.836C118.551 141.389 118.465 141.963 113.214 141.963C112.554 141.963 111.858 141.963 111.141 141.963V125.277L111.155 125.27Z" fill="#D87E38"/>
<path d="M107.769 119.473L100.825 119.566C94.4478 130.592 101.793 132.769 101.621 142.164C101.7 142.43 107.288 142.552 107.769 142.15V119.473Z" fill="#F69F43"/>
<path d="M107.69 130.836L107.661 136.497L107.647 142.143L107.69 142.049C107.69 142.049 107.611 142.085 107.554 142.099C107.496 142.114 107.439 142.128 107.374 142.143C107.252 142.164 107.123 142.178 107.001 142.193C106.75 142.222 106.492 142.236 106.234 142.25C105.717 142.272 105.208 142.279 104.691 142.279C104.175 142.279 103.658 142.265 103.149 142.236C102.891 142.222 102.633 142.207 102.382 142.186C102.253 142.171 102.131 142.157 102.001 142.143C101.937 142.135 101.88 142.121 101.822 142.114C101.793 142.114 101.765 142.099 101.743 142.092C101.743 142.092 101.736 142.092 101.729 142.092H101.722C101.722 142.092 101.722 142.092 101.722 142.099C101.729 142.107 101.736 142.121 101.736 142.135V142.178C101.758 141.187 101.693 140.196 101.535 139.212C101.377 138.235 101.133 137.272 100.825 136.331C100.517 135.39 100.151 134.471 99.7849 133.559C99.4262 132.646 99.0604 131.734 98.795 130.793C98.5296 129.852 98.3574 128.89 98.3215 127.913C98.2857 126.936 98.3933 125.959 98.6156 125.011C98.838 124.055 99.168 123.136 99.5482 122.231L99.8495 121.556L100.179 120.895C100.237 120.787 100.287 120.672 100.344 120.564L100.524 120.241L100.875 119.595L100.825 119.624L107.769 119.473L107.69 130.844V130.836ZM100.825 119.494H100.789L100.775 119.523L100.409 120.169L100.23 120.493C100.172 120.6 100.115 120.715 100.057 120.823L99.7203 121.484L99.4119 122.159C99.0173 123.064 98.673 123.998 98.4435 124.961C98.2068 125.923 98.0848 126.914 98.1135 127.913C98.135 128.904 98.3072 129.895 98.5798 130.851C98.8452 131.806 99.211 132.725 99.5697 133.645C99.9284 134.557 100.294 135.469 100.595 136.403C100.897 137.337 101.133 138.285 101.284 139.248C101.435 140.21 101.492 141.187 101.485 142.164V142.186V142.2C101.485 142.222 101.499 142.236 101.514 142.257C101.521 142.265 101.528 142.272 101.528 142.272H101.542C101.542 142.272 101.564 142.293 101.564 142.301H101.585L101.607 142.322H101.621C101.621 142.322 101.643 142.336 101.65 142.336C101.686 142.351 101.722 142.358 101.758 142.365C101.829 142.38 101.894 142.394 101.958 142.401C102.088 142.423 102.224 142.437 102.353 142.444C102.611 142.466 102.869 142.48 103.135 142.494C103.651 142.516 104.175 142.53 104.691 142.53C105.208 142.53 105.732 142.53 106.248 142.502C106.506 142.487 106.765 142.473 107.03 142.444C107.159 142.43 107.288 142.415 107.424 142.387C107.489 142.372 107.554 142.358 107.625 142.344C107.661 142.336 107.697 142.322 107.733 142.308C107.769 142.293 107.805 142.272 107.848 142.243L107.891 142.207V142.15L107.876 136.461L107.848 130.779L107.812 125.111L107.769 119.473L100.825 119.501V119.494Z" fill="#D87E38"/>
<path d="M107.768 119.416L114.711 119.509C121.088 130.535 113.743 132.712 113.915 142.107C113.836 142.373 108.248 142.495 107.768 142.093V119.416Z" fill="#F69F43"/>
<path d="M107.725 125.055L107.69 130.723L107.661 136.405L107.646 142.094V142.151L107.69 142.187C107.733 142.216 107.768 142.237 107.804 142.252C107.84 142.266 107.876 142.281 107.912 142.288C107.976 142.309 108.048 142.324 108.113 142.331C108.242 142.352 108.378 142.374 108.507 142.388C108.766 142.417 109.031 142.431 109.289 142.446C109.806 142.467 110.329 142.482 110.846 142.474C111.362 142.474 111.886 142.46 112.402 142.439C112.661 142.424 112.919 142.41 113.184 142.388C113.313 142.374 113.443 142.36 113.579 142.345C113.643 142.338 113.708 142.324 113.78 142.309C113.816 142.302 113.851 142.295 113.887 142.281C113.894 142.281 113.909 142.273 113.916 142.266H113.93L113.952 142.252H113.973C113.973 142.252 113.988 142.23 113.995 142.223H114.009C114.009 142.223 114.016 142.209 114.024 142.194C114.038 142.18 114.045 142.158 114.052 142.137V142.122V142.101C114.038 141.124 114.102 140.147 114.253 139.185C114.404 138.222 114.64 137.267 114.942 136.34C115.243 135.406 115.602 134.494 115.968 133.582C116.326 132.67 116.692 131.743 116.957 130.788C117.223 129.832 117.402 128.848 117.424 127.85C117.452 126.858 117.33 125.86 117.094 124.897C116.857 123.935 116.52 123.001 116.125 122.096L115.817 121.421L115.48 120.76C115.422 120.652 115.372 120.537 115.308 120.43L115.128 120.106L114.762 119.46L114.748 119.431H114.712L107.768 119.402L107.725 125.041V125.055ZM114.712 119.568L114.662 119.539L115.013 120.185L115.193 120.509C115.25 120.616 115.3 120.731 115.358 120.839L115.688 121.5L115.989 122.175C116.369 123.073 116.699 124 116.922 124.955C117.144 125.903 117.252 126.887 117.216 127.857C117.18 128.834 117.008 129.796 116.742 130.737C116.477 131.678 116.111 132.591 115.752 133.503C115.387 134.415 115.021 135.334 114.712 136.275C114.404 137.216 114.16 138.179 114.002 139.156C113.844 140.133 113.78 141.131 113.794 142.122V142.079C113.794 142.079 113.808 142.051 113.816 142.043C113.816 142.043 113.816 142.043 113.816 142.036H113.808C113.808 142.036 113.801 142.036 113.794 142.043C113.772 142.051 113.744 142.058 113.715 142.065C113.658 142.079 113.593 142.087 113.536 142.094C113.414 142.115 113.285 142.122 113.156 142.137C112.897 142.158 112.646 142.18 112.388 142.187C111.872 142.216 111.355 142.223 110.846 142.23C110.329 142.23 109.813 142.23 109.304 142.202C109.045 142.187 108.787 142.173 108.536 142.144C108.407 142.13 108.285 142.115 108.163 142.094C108.098 142.079 108.041 142.072 107.984 142.051C107.926 142.036 107.869 142.015 107.847 142L107.89 142.094L107.876 136.448L107.847 130.788L107.768 119.417L114.712 119.568Z" fill="#D87E38"/>
<path d="M107.819 125.018C111.46 125.018 114.411 122.953 114.411 120.406C114.411 117.86 111.46 115.795 107.819 115.795C104.178 115.795 101.227 117.86 101.227 120.406C101.227 122.953 104.178 125.018 107.819 125.018Z" fill="#F69F43"/>
<path d="M105.998 125.262C105.998 125.262 106.5 124.975 107.756 124.975C109.011 124.975 109.606 125.291 109.606 125.291C109.606 125.291 109.061 125.204 107.763 125.204C106.464 125.204 106.005 125.262 106.005 125.262H105.998Z" fill="#D87E38"/>
<path d="M107.776 122.269C112.241 122.269 115.86 119.442 115.86 115.955C115.86 112.467 112.241 109.641 107.776 109.641C103.311 109.641 99.6914 112.467 99.6914 115.955C99.6914 119.442 103.311 122.269 107.776 122.269Z" fill="#6091F5"/>
<path d="M107.82 124.286C108.549 124.286 109.14 123.694 109.14 122.964C109.14 122.234 108.549 121.643 107.82 121.643C107.091 121.643 106.5 122.234 106.5 122.964C106.5 123.694 107.091 124.286 107.82 124.286Z" fill="#FDD98B"/>
<path d="M91.7868 107.706C91.7868 107.706 89.8213 102.527 89.2977 97.1616C88.8673 92.7656 89.5846 92.5285 89.5846 92.5285C89.5846 92.5285 89.807 92.1694 91.3206 92.3202C92.8341 92.471 95.4094 92.7799 97.2314 93.5916C99.0534 94.4033 91.7868 107.706 91.7868 107.706Z" fill="#F69F43"/>
<path d="M91.8662 103.405C91.8662 103.405 89.4272 96.9836 90.3096 92.9036C90.3096 92.9036 90.4172 92.4079 91.1273 92.4798C91.8375 92.5516 96.6149 93.1119 96.5289 93.8087C96.4428 94.5054 91.8662 103.412 91.8662 103.412V103.405Z" fill="#F07A42"/>
<path d="M119.9 106.68C119.9 106.68 122.095 101.595 122.848 96.2578C123.472 91.8833 122.762 91.6175 122.762 91.6175C122.762 91.6175 122.554 91.2512 121.034 91.3374C119.513 91.4235 116.923 91.6175 115.072 92.343C113.222 93.0685 119.893 106.68 119.893 106.68H119.9Z" fill="#F69F43"/>
<path d="M120 102.371C120 102.371 122.718 96.0638 122.015 91.9479C122.015 91.9479 121.929 91.4523 121.219 91.4882C120.509 91.5241 115.71 91.8761 115.76 92.5728C115.81 93.2696 119.992 102.371 119.992 102.371H120Z" fill="#F07A42"/>
<path d="M123.751 105.071C123.751 105.251 123.751 105.438 123.737 105.617C123.694 107.039 123.457 108.411 123.07 109.719C121.097 116.277 115.05 121.068 107.876 121.14C107.819 121.14 107.762 121.14 107.697 121.14C107.389 121.14 107.087 121.133 106.786 121.111C99.6774 120.716 93.8024 115.681 92.131 108.979C92.0665 108.713 92.0019 108.433 91.9517 108.16C91.758 107.162 91.6504 106.12 91.6504 105.064C91.6504 104.863 91.6504 104.662 91.6648 104.461C91.9804 95.8625 99.0461 88.9883 107.704 88.9883C115.925 88.9883 122.704 95.1873 123.643 103.161C123.722 103.785 123.758 104.418 123.758 105.057L123.751 105.071Z" fill="#F69F43"/>
<path d="M123.751 105.072C123.751 105.251 123.751 105.438 123.737 105.618C123.694 107.04 123.457 108.412 123.069 109.719C121.097 116.277 115.05 121.069 107.876 121.14C107.819 121.14 107.762 121.14 107.697 121.14C107.389 121.14 107.087 121.133 106.786 121.112C99.6772 120.717 93.8022 115.681 92.1309 108.979C93.0777 107.026 94.1466 105.057 94.1537 104.95C94.8567 104.001 95.9112 103.003 96.772 103.01C99.132 102.996 100.438 104.009 101.836 103.815C106.571 103.003 104.376 94.4408 109.706 94.4767C109.741 94.4767 109.777 94.4767 109.813 94.4767C109.849 94.4767 109.885 94.4767 109.921 94.4767C115.251 94.4408 113.063 102.996 117.797 103.815C119.196 104.009 120.509 102.996 122.861 103.01C123.127 103.01 123.385 103.068 123.643 103.168C123.722 103.793 123.758 104.425 123.758 105.065L123.751 105.072Z" fill="#FCDABF"/>
<path d="M102.833 103.512C105.321 103.512 107.338 101.493 107.338 99.0012C107.338 96.5099 105.321 94.4902 102.833 94.4902C100.345 94.4902 98.3281 96.5099 98.3281 99.0012C98.3281 101.493 100.345 103.512 102.833 103.512Z" fill="#F8F5E8"/>
<path d="M116.364 103.512C118.852 103.512 120.869 101.493 120.869 99.0012C120.869 96.5099 118.852 94.4902 116.364 94.4902C113.876 94.4902 111.859 96.5099 111.859 99.0012C111.859 101.493 113.876 103.512 116.364 103.512Z" fill="#F8F5E8"/>
<path d="M104.161 102.643C106.115 102.643 107.698 101.058 107.698 99.1018C107.698 97.146 106.115 95.5605 104.161 95.5605C102.208 95.5605 100.625 97.146 100.625 99.1018C100.625 101.058 102.208 102.643 104.161 102.643Z" fill="#4F3232"/>
<path d="M117.839 102.643C119.792 102.643 121.376 101.058 121.376 99.1018C121.376 97.146 119.792 95.5605 117.839 95.5605C115.886 95.5605 114.303 97.146 114.303 99.1018C114.303 101.058 115.886 102.643 117.839 102.643Z" fill="#4F3232"/>
<path d="M104.011 105.366C104.039 105.402 104.893 108.139 108.171 107.126C111.449 106.113 110.725 102.637 110.725 102.637H111.141C111.141 102.637 110.725 107.255 114.111 107.255C117.496 107.255 117.747 105.294 117.747 105.294L117.841 105.366C117.841 105.366 117.181 107.823 114.068 107.823C111.751 107.823 110.911 106.149 110.911 106.149C110.911 106.149 110.187 107.794 107.583 107.794C105.373 107.744 104.333 106.494 103.932 105.452C103.975 105.366 104.011 105.366 104.011 105.366Z" fill="#EBBFA2"/>
<path d="M110.926 103.786C111.271 103.786 112.777 102.78 112.777 101.947C112.777 101.502 111.823 101.509 110.898 101.502C109.972 101.495 109.047 101.487 109.047 101.947C109.047 102.867 110.582 103.786 110.926 103.786Z" fill="#EA6873"/>
<path d="M102.505 98.6058C103.008 98.6058 103.416 98.1973 103.416 97.6935C103.416 97.1897 103.008 96.7812 102.505 96.7812C102.002 96.7812 101.594 97.1897 101.594 97.6935C101.594 98.1973 102.002 98.6058 102.505 98.6058Z" fill="#FEFDFC"/>
<path d="M116.046 98.3831C116.549 98.3831 116.957 97.9747 116.957 97.4708C116.957 96.967 116.549 96.5586 116.046 96.5586C115.543 96.5586 115.135 96.967 115.135 97.4708C115.135 97.9747 115.543 98.3831 116.046 98.3831Z" fill="#FEFDFC"/>
<path d="M120.517 96.2429C120.517 96.286 120.517 96.3076 120.495 96.3219C120.467 96.3435 120.438 96.3219 120.417 96.3004C120.373 96.2357 120.323 96.1711 120.28 96.0993C119.907 95.5174 119.477 94.9859 118.982 94.5118C118.444 93.9946 117.834 93.6067 117.138 93.3409C116.772 93.2045 116.399 93.0895 116.019 93.0249C115.546 92.9459 115.065 92.8884 114.577 92.9387C114.312 92.9674 114.047 93.0033 113.788 93.0536C113.745 93.0608 113.688 93.0967 113.666 93.0393C113.645 92.9818 113.709 92.9602 113.745 92.9459C114.047 92.7735 114.377 92.6801 114.721 92.6585C115.137 92.637 115.56 92.6298 115.969 92.716C116.428 92.8094 116.873 92.9459 117.303 93.1255C117.87 93.3625 118.408 93.6642 118.874 94.0736C119.24 94.3969 119.57 94.7417 119.879 95.1224C120.137 95.4528 120.309 95.8263 120.495 96.1926C120.51 96.2142 120.51 96.2357 120.517 96.2501V96.2429Z" fill="#D87E38"/>
<path d="M98.1428 95.984C98.0998 95.9122 98.1069 95.8619 98.1284 95.8188C98.358 95.3088 98.6521 94.8347 99.0323 94.4109C99.4125 93.9799 99.8357 93.6064 100.309 93.2904C100.818 92.9528 101.371 92.7229 101.945 92.5361C102.576 92.3278 103.229 92.256 103.889 92.2991C104.219 92.3206 104.541 92.3997 104.836 92.5649C104.922 92.6152 104.993 92.6726 105.044 92.7588C105.065 92.8019 105.087 92.8594 105.044 92.9025C105 92.9456 104.95 92.9312 104.907 92.9025C104.685 92.7875 104.448 92.7301 104.204 92.687C103.867 92.6295 103.53 92.6151 103.186 92.6439C102.805 92.6726 102.432 92.7444 102.059 92.8306C101.471 92.9671 100.926 93.2042 100.402 93.4843C99.6707 93.8794 99.1327 94.4828 98.6664 95.1508C98.5086 95.3806 98.3723 95.6321 98.2289 95.8691C98.2074 95.905 98.1858 95.9337 98.15 95.9768L98.1428 95.984Z" fill="#D87E38"/>
<path d="M106.478 104.18C106.133 104.152 105.775 104.144 105.423 104.152C105.072 104.159 104.713 104.18 104.361 104.216C103.658 104.281 102.955 104.41 102.267 104.575C101.578 104.748 100.897 104.963 100.237 105.229C99.5768 105.495 98.9383 105.818 98.3286 106.177C98.0202 106.35 97.7261 106.551 97.4248 106.752C97.1379 106.96 96.8437 107.161 96.5712 107.398L96.3631 107.563L96.2627 107.65L96.1623 107.736L95.7678 108.095C95.7032 108.152 95.6386 108.217 95.5741 108.282L95.3876 108.469C95.2656 108.598 95.1293 108.72 95.0145 108.849C94.0461 109.898 93.214 111.069 92.5254 112.319C93.1997 111.062 94.0175 109.876 94.9787 108.813C95.0935 108.677 95.2226 108.555 95.3445 108.425L95.531 108.232C95.5956 108.167 95.653 108.102 95.7247 108.045L96.1192 107.678L96.2197 107.585L96.3201 107.499L96.5281 107.326C96.8007 107.089 97.0948 106.888 97.3746 106.666C97.6687 106.464 97.9628 106.256 98.2712 106.077C98.8881 105.71 99.5194 105.373 100.187 105.1C100.846 104.827 101.528 104.597 102.224 104.417C102.92 104.238 103.623 104.101 104.34 104.029C104.699 103.986 105.057 103.965 105.416 103.95C105.775 103.936 106.133 103.936 106.499 103.972L106.478 104.173V104.18Z" fill="#906A44"/>
<path d="M106.298 105.408C105.982 105.494 105.666 105.631 105.365 105.775L105.136 105.889L104.913 106.012C104.763 106.091 104.619 106.184 104.476 106.27C103.902 106.636 103.364 107.06 102.862 107.52L102.496 107.879L102.403 107.965L102.316 108.059L102.144 108.245L101.972 108.432L101.886 108.526L101.807 108.626L101.477 109.021C101.427 109.086 101.362 109.151 101.319 109.222L101.169 109.431L100.867 109.847C100.674 110.127 100.494 110.422 100.301 110.709C100.48 110.415 100.659 110.12 100.846 109.833L101.14 109.409L101.291 109.201C101.341 109.129 101.398 109.064 101.449 108.993L101.764 108.59L101.843 108.49L101.929 108.396L102.101 108.202L102.273 108.008L102.36 107.915L102.453 107.822L102.811 107.455C103.306 106.981 103.837 106.536 104.411 106.148C104.555 106.055 104.698 105.954 104.849 105.868L105.071 105.739L105.301 105.616C105.609 105.458 105.925 105.315 106.262 105.207L106.312 105.401L106.298 105.408Z" fill="#906A44"/>
<path d="M115.588 104.461C115.954 104.432 116.312 104.432 116.671 104.44C117.03 104.454 117.388 104.475 117.747 104.519C118.464 104.598 119.167 104.727 119.863 104.906C120.559 105.086 121.24 105.316 121.9 105.589C122.56 105.862 123.199 106.192 123.816 106.566C124.124 106.745 124.418 106.954 124.712 107.155C124.999 107.37 125.293 107.579 125.559 107.816L125.767 107.988L125.867 108.074L125.968 108.168L126.362 108.534C126.427 108.591 126.491 108.656 126.556 108.721L126.742 108.915C126.864 109.044 126.994 109.166 127.108 109.302C128.07 110.366 128.887 111.551 129.562 112.808C128.873 111.558 128.041 110.387 127.072 109.338C126.958 109.202 126.829 109.08 126.699 108.958L126.513 108.771C126.448 108.706 126.391 108.642 126.319 108.584L125.925 108.225L125.824 108.139L125.724 108.053L125.516 107.887C125.243 107.658 124.949 107.456 124.662 107.241C124.368 107.047 124.074 106.846 123.758 106.666C123.141 106.307 122.51 105.984 121.85 105.718C121.19 105.452 120.516 105.237 119.82 105.064C119.132 104.899 118.429 104.77 117.726 104.705C117.374 104.669 117.015 104.648 116.664 104.641C116.312 104.641 115.954 104.641 115.609 104.669L115.588 104.468V104.461Z" fill="#906A44"/>
<path d="M115.997 105.387C116.341 105.494 116.65 105.638 116.958 105.796L117.188 105.918L117.41 106.048C117.561 106.134 117.704 106.227 117.848 106.328C118.421 106.708 118.952 107.154 119.447 107.635L119.806 108.001L119.899 108.095L119.985 108.188L120.157 108.382L120.329 108.576L120.416 108.669L120.494 108.77L120.81 109.172C120.86 109.244 120.918 109.309 120.968 109.381L121.119 109.589L121.413 110.013C121.599 110.3 121.771 110.594 121.958 110.889C121.771 110.602 121.585 110.314 121.391 110.027L121.09 109.61L120.939 109.402C120.889 109.33 120.832 109.266 120.781 109.201L120.451 108.806L120.373 108.705L120.286 108.612L120.114 108.425L119.942 108.238L119.856 108.145L119.763 108.059L119.397 107.7C118.895 107.24 118.357 106.816 117.783 106.45C117.64 106.364 117.496 106.27 117.345 106.191L117.123 106.069L116.893 105.954C116.592 105.811 116.269 105.674 115.961 105.588L116.011 105.394L115.997 105.387Z" fill="#906A44"/>
<path d="M179.437 118.798L173.383 107.894C173.383 107.894 173.326 106.53 174.861 107.097C175.313 107.981 184.301 124.013 184.301 124.013L191.166 134.048L191.725 136.418L189.423 135.262L179.437 118.806V118.798Z" fill="#D98D44"/>
<path d="M-73.0781 167.399L5.61334 127.641H288.637L361.913 167.399H-73.0781Z" fill="#F5D994"/>
<path d="M126.57 153.613L143.162 131.195C157.638 126.964 174.266 127.862 189.681 131.597C205.269 128.573 218.755 128.867 233.503 131.195L250.683 153.613H126.577H126.57Z" fill="#E1F0F4"/>
<path d="M96.5209 128.222C97.6262 128.222 98.5223 127.9 98.5223 127.503C98.5223 127.107 97.6262 126.785 96.5209 126.785C95.4156 126.785 94.5195 127.107 94.5195 127.503C94.5195 127.9 95.4156 128.222 96.5209 128.222Z" fill="#F69F43"/>
<path d="M94.5195 127.595C94.5195 127.595 94.5554 125.699 96.3631 125.735C98.1708 125.771 98.4864 127.057 98.5223 127.595C98.5581 128.134 94.5195 127.595 94.5195 127.595Z" fill="#F69F43"/>
<path d="M96.3068 128.408C96.3663 128.408 96.4144 128.302 96.4144 128.171C96.4144 128.04 96.3663 127.934 96.3068 127.934C96.2474 127.934 96.1992 128.04 96.1992 128.171C96.1992 128.302 96.2474 128.408 96.3068 128.408Z" fill="#FCFCFC"/>
<path d="M96.8791 128.408C96.9385 128.408 96.9867 128.302 96.9867 128.171C96.9867 128.04 96.9385 127.934 96.8791 127.934C96.8197 127.934 96.7715 128.04 96.7715 128.171C96.7715 128.302 96.8197 128.408 96.8791 128.408Z" fill="#FCFCFC"/>
<path d="M97.4162 128.351C97.4756 128.351 97.5238 128.245 97.5238 128.114C97.5238 127.983 97.4756 127.877 97.4162 127.877C97.3568 127.877 97.3086 127.983 97.3086 128.114C97.3086 128.245 97.3568 128.351 97.4162 128.351Z" fill="#FCFCFC"/>
<g opacity="0.29">
<path d="M190.65 139.937C198.591 137.875 206.568 135.684 214.81 135.289C217.342 135.167 219.91 135.218 222.392 135.749C222.729 135.821 222.873 135.304 222.536 135.232C218.031 134.277 213.268 134.715 208.749 135.361C204.229 136.008 199.588 137.035 195.083 138.206C193.555 138.601 192.035 139.032 190.507 139.427C190.17 139.513 190.313 140.03 190.65 139.944V139.937Z" fill="#0C0C0C"/>
</g>
<g opacity="0.29">
<path d="M191.095 141.712C199.036 139.651 207.013 137.46 215.255 137.065C217.787 136.943 220.355 136.993 222.837 137.524C223.175 137.596 223.318 137.079 222.981 137.007C218.476 136.052 213.713 136.49 209.194 137.137C204.675 137.783 200.033 138.81 195.529 139.981C194.001 140.376 192.48 140.807 190.952 141.202C190.615 141.288 190.758 141.806 191.095 141.719V141.712Z" fill="#0C0C0C"/>
</g>
<g opacity="0.29">
<path d="M191.381 143.781C199.322 141.719 207.298 139.528 215.54 139.133C218.073 139.011 220.641 139.061 223.123 139.593C223.46 139.665 223.603 139.148 223.266 139.076C218.761 138.12 213.998 138.559 209.479 139.205C204.867 139.859 200.319 140.879 195.814 142.05C194.286 142.445 192.765 142.876 191.237 143.271C190.9 143.357 191.043 143.874 191.381 143.788V143.781Z" fill="#0C0C0C"/>
</g>
<path opacity="0.05" d="M252.791 140.64L258.659 145.18L259.778 144.483L260.538 145.439C260.538 145.439 307.416 136.79 309.446 135.009C311.476 133.227 310.802 132.861 310.802 132.861L308.169 131.432L255.883 138.435L252.791 140.64Z" fill="#595959"/>
<path d="M225.922 121.269C210.442 122.289 188.484 123.582 188.484 123.582C188.484 123.582 188.276 120.781 187.946 116.363C187.896 115.681 187.846 114.963 187.789 114.208C187.76 113.864 187.738 113.512 187.71 113.153C187.939 113.059 188.212 112.887 188.528 112.635C188.886 112.355 193.728 107.406 198.197 99.1311C196.045 100.266 192.2 101.904 187.459 102.177C187.272 102.184 187.086 102.198 186.892 102.206C186.842 101.537 186.792 100.855 186.734 100.166C186.691 99.598 186.655 99.0306 186.605 98.4559C185.264 80.6059 183.707 59.8396 183.707 60.091C183.707 60.2131 186.512 59.8755 190.68 59.3152C201.153 57.9073 220.284 55.0628 225.485 54.2871C226.338 54.1578 226.819 54.0859 226.819 54.0859C226.819 54.0859 228.067 57.0526 228.526 62.0448C228.985 67.0442 232.17 102.924 239.903 113.971C242.636 118.526 241.409 120.235 225.922 121.262V121.269Z" fill="#3C3C3C"/>
<path d="M190.93 56.1685C190.93 56.1685 190.829 57.325 190.686 59.3219C190.162 66.2105 188.828 83.9815 187.738 98.4554C187.695 99.0301 187.652 99.6047 187.601 100.165C187.558 100.847 187.501 101.508 187.458 102.169C187.271 102.176 187.085 102.191 186.891 102.198C186.626 102.205 186.368 102.212 186.095 102.212C182.709 102.212 179.739 101.472 177.43 100.618C180.034 105.401 183.183 110.25 186.26 112.642C186.332 112.699 186.482 112.8 186.654 112.908C186.626 113.339 186.59 113.748 186.554 114.143C186.497 114.955 186.439 115.702 186.389 116.356C186.238 118.439 186.145 119.646 186.145 119.646C186.145 119.646 164.188 118.353 148.708 117.333C133.22 116.305 132.001 114.596 134.727 110.042C142.46 98.9869 145.645 63.1074 146.104 58.1151C146.556 53.1157 147.811 50.1562 147.811 50.1562C147.811 50.1562 148.241 50.2209 149.009 50.3358C155.974 51.3702 190.923 56.5636 190.923 56.1613L190.93 56.1685Z" fill="#3C3C3C"/>
<path d="M212.377 89.1092C216.222 90.0789 224.658 95.1502 233.302 101.012C244.463 108.575 255.697 117.619 255.058 122.511C253.918 131.195 231.458 140.052 229.751 142.271C228.044 144.491 217.241 131.504 217.241 131.504C217.241 131.504 229.213 124.558 234.5 121.282C234.385 120.313 215.813 111.513 215.813 111.513V127.632H158.857L158.728 114.229L149.424 122.137L127.538 125.923L121.455 120.736C121.455 120.736 147.222 95.9619 157.967 91.063C168.72 86.1641 175.714 85.9199 175.714 85.9199C175.714 85.9199 203.568 86.8825 212.377 89.0949V89.1092Z" fill="#FEBF46"/>
<path d="M200.879 100.072C196.826 106.573 191.539 113.67 187.787 114.208C187.63 114.23 187.486 114.237 187.343 114.237C187.092 114.237 186.826 114.208 186.561 114.151C182.501 113.282 177.027 106.041 173.089 99.4183C172.809 98.9514 172.53 98.4845 172.271 98.0248H172.315C172.315 98.0248 173.068 98.5635 174.416 99.2746C175.22 99.6984 176.245 100.18 177.436 100.625C180.04 105.409 183.189 110.258 186.267 112.65C186.338 112.707 186.489 112.808 186.661 112.915C186.905 113.073 187.214 113.224 187.386 113.224C187.486 113.224 187.594 113.195 187.723 113.152C187.952 113.059 188.225 112.887 188.541 112.635C188.899 112.355 193.741 107.406 198.21 99.131C198.512 98.9729 198.784 98.8149 199.021 98.6856C199.709 98.2833 200.09 98.0176 200.09 98.0176L200.427 98.8652L200.893 100.072H200.879Z" fill="white"/>
<path d="M198.196 99.1289C193.727 107.404 188.885 112.346 188.526 112.633C188.203 112.885 187.938 113.057 187.708 113.15C187.586 113.193 187.479 113.222 187.371 113.222C187.199 113.222 186.898 113.064 186.647 112.913C186.475 112.806 186.324 112.705 186.252 112.647C183.175 110.263 180.026 105.407 177.422 100.623C179.732 101.478 182.694 102.218 186.087 102.218C186.353 102.218 186.618 102.218 186.884 102.203C187.077 102.203 187.264 102.189 187.45 102.175C192.192 101.902 196.037 100.264 198.189 99.1289H198.196Z" fill="white"/>
<path d="M206.84 89.1443C206.876 89.3526 205.427 92.3048 203.239 96.119C202.708 97.0457 202.135 98.0154 201.532 99.0066C201.324 99.3586 201.102 99.7106 200.879 100.07C196.826 106.57 191.54 113.667 187.788 114.206C187.63 114.228 187.487 114.235 187.343 114.235C187.092 114.235 186.827 114.206 186.561 114.149C182.501 113.279 177.028 106.039 173.09 99.4161C172.81 98.9492 172.53 98.4823 172.272 98.0226C172.064 97.6634 171.863 97.3114 171.677 96.9595C169.632 93.253 168.233 90.0637 168.047 88.742C168.42 88.3757 171.461 87.9375 171.461 87.9375C171.49 88.0381 173.506 93.0662 176.425 98.6978C176.483 98.8199 176.54 98.9205 176.597 99.0354C176.877 99.5598 177.157 100.091 177.444 100.623C180.048 105.407 183.197 110.255 186.274 112.647C186.346 112.705 186.497 112.805 186.669 112.913C186.913 113.071 187.221 113.222 187.393 113.222C187.494 113.222 187.601 113.193 187.731 113.15C187.96 113.057 188.233 112.884 188.548 112.633C188.907 112.353 193.749 107.404 198.218 99.1288C198.311 98.9564 198.404 98.784 198.498 98.6044C198.555 98.5038 198.612 98.3961 198.67 98.2812C200.241 95.2858 201.733 91.8882 202.952 88.1314C203.691 87.8657 206.869 88.7995 206.869 89.1371L206.84 89.1443Z" fill="#D98D45"/>
<path d="M226.524 45.1861C226.151 50.3722 223.519 84.3052 203.24 96.1142C201.798 96.9546 200.27 97.6801 198.642 98.2835C195.363 99.4831 191.712 100.158 187.623 100.158C183.535 100.158 179.733 99.6339 176.411 98.693C174.726 98.2117 173.148 97.6298 171.663 96.9475C146.24 85.2893 149.103 45.8972 149.103 45.8972L202.573 17.5742C202.573 17.5742 226.983 38.8721 226.524 45.1789V45.1861Z" fill="#FFC29C"/>
<path d="M147.143 56.6997C147.143 56.6997 142.15 58.6104 142.911 64.9243C143.671 71.2382 148.018 77.5881 153.707 72.2798C159.395 66.9715 152.344 55.5935 150.156 55.9742C147.968 56.3549 147.143 56.6997 147.143 56.6997Z" fill="#FFC29C"/>
<path d="M226.077 57.023C226.077 57.023 230.841 58.8044 230.109 64.7089C229.377 70.6134 225.245 76.5466 219.822 71.5831C214.399 66.6196 221.666 56.4411 223.746 56.8003C225.826 57.1594 226.077 57.0301 226.077 57.0301V57.023Z" fill="#FFC29C"/>
<path d="M186.488 2.35932C160.779 -8.0418 130.974 33.9075 145.464 57.8272C150.966 60.6286 175.613 52.7128 186.416 43.0228C186.416 43.0228 206.817 57.5614 228.129 58.8903C238.896 38.8423 217.513 -8.27166 186.495 2.35932H186.488Z" fill="#3C3C3C"/>
<path d="M186.268 88.995C183.155 88.995 180.694 82.875 186.44 82.875C191.605 82.875 189.381 88.995 186.268 88.995Z" fill="#672929"/>
<path d="M182.975 78.6304C183.649 75.8936 189.129 75.8218 189.782 78.6304C188.649 78.0054 187.601 78.0054 186.389 77.9983C185.206 78.0629 184.079 78.0126 182.975 78.6304Z" fill="#824D4D"/>
<path d="M166.369 75.1037C166.67 75.5563 168.6 75.312 172.954 75.1037C177.308 74.8954 178.772 75.3264 179.145 74.9241C179.747 74.0334 180.694 66.0961 173.973 65.7441C166.584 65.7441 164.769 72.6686 166.369 75.1109V75.1037Z" fill="white"/>
<path d="M174.287 78.1333C176.672 78.1333 178.605 76.1137 178.605 73.6223C178.605 71.131 176.672 69.1113 174.287 69.1113C171.902 69.1113 169.969 71.131 169.969 73.6223C169.969 76.1137 171.902 78.1333 174.287 78.1333Z" fill="black"/>
<path d="M172.66 72.3229C173.111 72.3229 173.477 71.9402 173.477 71.4681C173.477 70.996 173.111 70.6133 172.66 70.6133C172.208 70.6133 171.842 70.996 171.842 71.4681C171.842 71.9402 172.208 72.3229 172.66 72.3229Z" fill="white"/>
<path d="M206.576 75.1037C206.275 75.5563 204.345 75.312 199.991 75.1037C195.637 74.8882 194.174 75.3264 193.801 74.9241C193.198 74.0334 192.251 66.0961 198.973 65.7441C206.361 65.7441 208.176 72.6686 206.576 75.1109V75.1037Z" fill="white"/>
<path d="M198.884 78.1267C201.368 78.1267 203.382 76.1103 203.382 73.6229C203.382 71.1356 201.368 69.1191 198.884 69.1191C196.4 69.1191 194.387 71.1356 194.387 73.6229C194.387 76.1103 196.4 78.1267 198.884 78.1267Z" fill="black"/>
<path d="M197.408 72.6178C197.88 72.6178 198.262 72.2351 198.262 71.763C198.262 71.2909 197.88 70.9082 197.408 70.9082C196.937 70.9082 196.555 71.2909 196.555 71.763C196.555 72.2351 196.937 72.6178 197.408 72.6178Z" fill="white"/>
<path d="M208.735 63.3801C207.559 61.139 205.471 59.1852 203.241 58.0574C199.984 56.4053 196.01 56.9441 193.105 59.0703C192.552 59.4725 193.09 60.4135 193.65 60.0041C196.397 57.9856 200.084 57.5187 203.111 59.2067C205.02 60.277 206.791 61.9722 207.81 63.926C208.133 64.5438 209.058 63.9979 208.743 63.3801H208.735Z" fill="black"/>
<path d="M165.508 63.9182C166.534 61.9644 168.306 60.262 170.206 59.1989C173.234 57.5037 176.914 57.9778 179.668 59.9963C180.228 60.4057 180.766 59.4719 180.213 59.0624C177.308 56.9363 173.334 56.3975 170.077 58.0496C167.846 59.1846 165.752 61.1384 164.583 63.3723C164.26 63.9829 165.192 64.5288 165.515 63.9182H165.508Z" fill="black"/>
<path d="M167.596 75.475C167.596 75.475 176.161 74.5053 179.073 75.3601C181.985 76.2148 178.435 78.8941 178.435 78.8941C178.435 78.8941 173.492 79.3754 172.495 79.3179C171.498 79.2605 168.679 78.262 168.679 78.262L167.596 75.4678V75.475Z" fill="#FFC29C"/>
<path d="M205.586 75.475C205.586 75.475 197.021 74.5053 194.108 75.3601C191.196 76.2148 194.747 78.8941 194.747 78.8941C194.747 78.8941 199.689 79.3754 200.686 79.3179C201.683 79.2605 204.502 78.262 204.502 78.262L205.586 75.4678V75.475Z" fill="#FFC29C"/>
<path d="M121.455 120.751C121.455 120.751 116.491 127.245 118.593 132.237C120.695 137.229 136.189 136.13 136.189 136.13L160.665 135.728L163.885 120.277L133.858 120.184L121.455 120.751Z" fill="#FEBF46"/>
<path d="M174.561 108.072L174.109 108.306C173.686 108.524 173.521 109.044 173.739 109.467L175.411 112.709C175.629 113.132 176.148 113.298 176.57 113.08L177.023 112.846C177.445 112.627 177.611 112.107 177.393 111.684L175.721 108.442C175.503 108.019 174.984 107.853 174.561 108.072Z" fill="#F4559E"/>
<path d="M176.493 109.892L174.498 110.924L187.775 136.671L189.77 135.639L176.493 109.892Z" fill="#FFCC00"/>
<path d="M176.482 109.89L175.998 110.141L189.275 135.887L189.759 135.637L176.482 109.89Z" fill="#E5B000"/>
<path d="M175.686 112.215L175.271 112.43L187.771 136.67L188.186 136.456L175.686 112.215Z" fill="#FFE159"/>
<path d="M176.318 109.502L174.272 110.56C174.23 110.582 174.213 110.634 174.235 110.676L176.361 114.799C176.383 114.842 176.435 114.858 176.477 114.836L178.523 113.778C178.565 113.757 178.582 113.705 178.56 113.662L176.434 109.539C176.412 109.497 176.36 109.48 176.318 109.502Z" fill="#7FCCFF"/>
<path d="M189.76 135.648L189.896 136.316L190.341 138.514L189.767 138.808L188.34 137.286L187.766 136.675C187.766 136.675 187.378 135.799 187.658 135.712C187.938 135.626 188.404 136.158 188.383 136.129C188.361 136.1 188.254 135.411 188.383 135.332C188.519 135.253 188.87 135.504 189.057 135.763C189.057 135.763 188.756 134.973 189.057 134.922C189.358 134.872 189.753 135.641 189.753 135.641L189.76 135.648Z" fill="#F3DCAC"/>
<path d="M190.341 138.514L190.578 139.677L189.768 138.815L190.341 138.514Z" fill="#30261A"/>
<path d="M176.439 109.552L178.562 113.668C178.584 113.711 178.562 113.769 178.526 113.79L177.759 114.185L175.557 109.911L176.324 109.516C176.367 109.495 176.425 109.516 176.446 109.552H176.439Z" fill="#57B7E9"/>
<path d="M173.922 109.451C173.922 109.451 173.571 108.848 173.85 108.618C174.13 108.388 174.331 108.338 174.331 108.338C174.331 108.338 174.568 108.338 174.324 108.525C174.08 108.704 173.872 108.719 173.922 108.97C173.972 109.221 174.123 109.609 173.922 109.451Z" fill="#FF83C0"/>
<path d="M176.08 109.789L174.372 110.673C174.372 110.673 174.337 110.673 174.322 110.658C174.322 110.658 174.322 110.622 174.337 110.608L176.044 109.725C176.044 109.725 176.08 109.725 176.094 109.739C176.094 109.739 176.094 109.775 176.08 109.789Z" fill="white"/>
<path d="M187.033 114.193V128.021L188.088 128.035V113.568L187.033 114.193Z" fill="#D98D44"/>
<path d="M198.64 98.2893C198.582 98.397 198.525 98.5048 198.468 98.6125C198.374 98.7849 198.281 98.9645 198.188 99.1369C196.036 100.272 192.191 101.91 187.449 102.183C187.263 102.19 187.076 102.204 186.883 102.211C186.617 102.218 186.359 102.226 186.086 102.226C182.701 102.226 179.731 101.486 177.421 100.631C177.134 100.099 176.847 99.5679 176.575 99.0435C176.517 98.9286 176.46 98.828 176.402 98.7131C179.724 99.6541 183.447 100.178 187.614 100.178C191.782 100.178 195.354 99.5032 198.633 98.3036L198.64 98.2893Z" fill="#FFC29C"/>
<path d="M169.058 120.436C169.058 120.436 175.485 117.246 177.788 117.505C180.091 117.764 184.71 121.118 185.478 122.404C186.245 123.69 192.873 134.565 187.752 136.361C185.277 137.33 170.851 136.339 166.727 136.238C162.602 136.138 169.058 120.443 169.058 120.443V120.436Z" fill="#FBC19C"/>
<path d="M160.113 135.995C160.113 135.995 158.994 122.347 162.71 120.027C165.78 118.561 170.213 119.768 170.213 119.768C170.213 119.768 167.868 123.41 167.638 136.311C167.602 137.079 160.601 137.604 160.113 135.995Z" fill="#D98D44"/>
<path d="M219.874 135.355C219.874 135.355 218.547 134.055 214.888 134.206C208.655 134.443 209.379 138.989 203.49 141.281C202.615 141.805 201.51 144.499 208.999 143.515C208.999 143.515 204.968 146.194 199.674 146.711C194.165 149.268 205.054 157.263 216.438 152.997C223.159 150.878 225.29 146.345 225.29 146.345L219.874 135.348V135.355Z" fill="#FBC19C"/>
<path d="M219.947 129.779C220.843 129.894 224.753 133.55 227.141 136.596C229.53 139.642 230.212 141.351 230.04 142.235C229.867 143.118 226.453 146.308 225.004 146.322C223.555 146.336 213.684 136.309 213.519 135.684C213.354 135.059 212.895 133.579 215.155 132.15C217.414 130.72 219.05 129.657 219.947 129.772V129.779Z" fill="#D98D44"/>
<path d="M88.7012 137.092L134.187 140.066L133.829 141.28L95.9175 162.161L88.7012 137.092Z" fill="#606060"/>
<path d="M24.8304 158.728L7.71484 98.8281L81.1626 103.289L96.7933 162.952L24.8304 158.728Z" fill="#606060"/>
<path d="M151.67 120.234C145.967 120.723 140.25 120.73 134.547 120.234C140.25 119.739 145.967 119.746 151.67 120.234Z" fill="#D98D44"/>
<path d="M242.241 117.348C239.738 119.194 236.998 120.616 234.035 121.593C236.539 119.74 239.279 118.325 242.241 117.348Z" fill="#D98D44"/>
<path d="M158.728 114.236C158.24 112.914 158.233 111.564 158.728 110.242C159.223 111.564 159.216 112.914 158.728 114.236Z" fill="#D98D44"/>
</g>
</g>
<defs>
<clipPath id="clip0_657_6917">
<rect width="311" height="140" fill="white"/>
</clipPath>
</defs>
</svg>
